<svg xmlns="http://www.w3.org/2000/svg" viewBox="0 0 100 100" width="100" height="100">
  <defs>
    <linearGradient id="bg-gradient" x1="0%" y1="0%" x2="100%" y2="100%">
      <stop offset="0%" style="stop-color:#3b82f6;stop-opacity:1" />
      <stop offset="100%" style="stop-color:#1d4ed8;stop-opacity:1" />
    </linearGradient>
    <linearGradient id="q-gradient" x1="0%" y1="0%" x2="100%" y2="100%">
      <stop offset="0%" style="stop-color:#ffffff;stop-opacity:1" />
      <stop offset="100%" style="stop-color:#e2e8f0;stop-opacity:1" />
    </linearGradient>
  </defs>
  
  <!-- Background circle -->
  <circle cx="50" cy="50" r="45" fill="url(#bg-gradient)" stroke="#1e40af" stroke-width="2"/>
  
  <!-- Letter Q -->
  <path d="M25 35 Q25 25 35 25 L60 25 Q70 25 70 35 L70 55 Q70 65 60 65 L55 65 L65 75 L55 75 L45 65 L35 65 Q25 65 25 55 Z M35 35 L35 55 L55 55 L55 35 Z" 
        fill="url(#q-gradient)" 
        stroke="#1e40af" 
        stroke-width="1.5"/>
  
  <!-- Inner circle for Q -->
  <circle cx="45" cy="45" r="8" fill="url(#bg-gradient)"/>
  
  <!-- Highlight -->
  <ellipse cx="40" cy="35" rx="8" ry="12" fill="rgba(255,255,255,0.3)"/>
</svg>
