<svg xmlns="http://www.w3.org/2000/svg" viewBox="0 0 200 60" width="200" height="60">
  <defs>
    <linearGradient id="bg-gradient-white" x1="0%" y1="0%" x2="100%" y2="100%">
      <stop offset="0%" style="stop-color:#ffffff;stop-opacity:1" />
      <stop offset="100%" style="stop-color:#e2e8f0;stop-opacity:1" />
    </linearGradient>
    <linearGradient id="q-gradient-white" x1="0%" y1="0%" x2="100%" y2="100%">
      <stop offset="0%" style="stop-color:#1e40af;stop-opacity:1" />
      <stop offset="100%" style="stop-color:#3b82f6;stop-opacity:1" />
    </linearGradient>
  </defs>
  
  <!-- Background circle -->
  <circle cx="30" cy="30" r="25" fill="url(#bg-gradient-white)" stroke="#ffffff" stroke-width="1.5"/>
  
  <!-- Letter Q -->
  <path d="M15 22 Q15 15 22 15 L35 15 Q42 15 42 22 L42 35 Q42 42 35 42 L32 42 L40 48 L35 48 L28 42 L22 42 Q15 42 15 35 Z M22 22 L22 35 L32 35 L32 22 Z" 
        fill="url(#q-gradient-white)" 
        stroke="#ffffff" 
        stroke-width="1"/>
  
  <!-- Inner circle for Q -->
  <circle cx="28.5" cy="28.5" r="5" fill="url(#bg-gradient-white)"/>
  
  <!-- Highlight -->
  <ellipse cx="25" cy="22" rx="5" ry="8" fill="rgba(255,255,255,0.6)"/>
  
  <!-- Quriosity Text -->
  <text x="65" y="38" font-family="Arial, sans-serif" font-size="20" font-weight="bold" fill="#ffffff">Quriosity</text>
</svg>
